<?xml version="1.0" standalone="no"?>
<!DOCTYPE svg PUBLIC "-//W3C//DTD SVG 20010904//EN"
 "http://www.w3.org/TR/2001/REC-SVG-20010904/DTD/svg10.dtd">
<svg version="1.0" xmlns="http://www.w3.org/2000/svg"
 width="500.000000pt" height="500.000000pt" viewBox="0 0 500.000000 500.000000"
 preserveAspectRatio="xMidYMid meet">
<metadata>
Created by potrace 1.14, written by Peter Selinger 2001-2017
</metadata>
<g transform="translate(0.000000,500.000000) scale(0.100000,-0.100000)"
fill="#000000" stroke="none">
<path d="M1887 3855 c-1 -2 -32 -5 -69 -9 -199 -18 -374 -100 -509 -237 -84
-85 -60 -45 -491 -794 -60 -104 -113 -197 -118 -205 -27 -43 -210 -363 -210
-366 0 -2 -18 -33 -40 -68 -98 -161 -115 -224 -82 -298 25 -55 55 -86 106
-109 81 -37 158 -19 228 53 26 27 48 53 48 57 0 7 123 224 250 441 21 36 49
84 62 107 13 22 127 220 253 439 223 386 266 450 347 510 77 59 220 82 338 56
84 -19 132 -43 191 -99 53 -50 58 -57 433 -708 146 -253 269 -465 273 -470 4
-6 17 -28 28 -49 52 -101 213 -127 306 -49 27 23 61 74 58 89 0 4 4 10 9 13 5
3 72 114 149 246 327 563 636 1099 661 1146 62 120 7 256 -118 293 -72 22
-157 -1 -206 -56 -12 -12 -148 -243 -304 -513 -373 -647 -384 -667 -389 -652
-9 27 -467 816 -509 875 -129 184 -334 313 -542 340 -107 15 -149 19 -153 17z"/>
<path d="M4720 3839 c-43 -18 -87 -57 -105 -96 -81 -167 84 -348 253 -278 108
46 155 172 101 277 -24 47 -36 59 -91 88 -40 22 -116 26 -158 9z"/>
<path d="M4364 3231 c-34 -15 -114 -95 -114 -113 0 -3 -30 -57 -66 -119 -37
-63 -74 -127 -84 -144 -65 -115 -341 -593 -375 -650 -22 -38 -93 -160 -156
-269 -151 -263 -220 -334 -355 -365 -155 -36 -297 -4 -400 91 -54 50 -61 61
-207 312 -60 104 -118 203 -128 220 -10 17 -24 42 -32 56 -7 14 -87 153 -178
310 -90 157 -170 297 -178 311 -78 154 -294 159 -372 8 -10 -20 -15 -40 -11
-44 4 -3 2 -5 -5 -3 -9 2 -389 -641 -575 -972 -11 -19 -27 -48 -37 -65 -10
-16 -29 -50 -43 -75 -14 -25 -49 -85 -78 -135 -89 -154 -102 -185 -103 -240 0
-79 38 -142 105 -176 79 -40 179 -26 235 34 31 32 57 76 231 377 283 490 357
620 384 665 16 28 38 69 50 93 12 23 25 42 28 42 4 0 20 -23 36 -51 16 -29 43
-75 59 -104 17 -28 53 -91 80 -139 28 -48 55 -95 60 -104 14 -23 69 -119 93
-162 47 -85 167 -288 186 -316 211 -311 632 -440 987 -303 157 60 298 174 391
315 25 38 132 220 238 404 106 184 270 470 365 635 278 482 269 462 239 551
-39 117 -163 175 -270 125z"/>
<path d="M136 1536 c-166 -62 -173 -285 -12 -368 82 -42 197 -7 253 78 40 62
33 172 -15 229 -54 64 -148 90 -226 61z"/>
</g>
</svg>
