<?xml version="1.0" standalone="no"?>
<!DOCTYPE svg PUBLIC "-//W3C//DTD SVG 20010904//EN"
 "http://www.w3.org/TR/2001/REC-SVG-20010904/DTD/svg10.dtd">
<svg version="1.0" xmlns="http://www.w3.org/2000/svg"
 width="500.000000pt" height="500.000000pt" viewBox="0 0 500.000000 500.000000"
 preserveAspectRatio="xMidYMid meet">
<metadata>
Created by potrace 1.14, written by Peter Selinger 2001-2017
</metadata>
<g transform="translate(0.000000,500.000000) scale(0.100000,-0.100000)"
fill="#000000" stroke="none">
<path d="M1390 3906 c-7 -14 -24 -26 -37 -28 l-25 -3 20 -22 c13 -15 18 -32
14 -49 -5 -26 -4 -26 19 -11 16 11 29 13 39 7 24 -15 30 -12 30 17 0 14 7 35
17 45 15 17 15 18 -11 18 -19 0 -29 7 -36 25 -12 31 -13 31 -30 1z"/>
<path d="M2274 3849 c-472 -77 -863 -376 -1056 -804 -34 -76 -66 -162 -73
-195 -2 -8 -8 -33 -14 -55 -6 -22 -13 -56 -16 -75 -2 -19 -9 -61 -13 -92 -12
-75 -7 -286 8 -373 7 -38 13 -79 15 -90 1 -11 5 -27 8 -35 3 -8 17 -53 32
-100 14 -47 38 -110 53 -140 l27 -55 50 1 c163 2 402 64 765 196 47 17 89 35
95 40 5 4 15 8 23 8 8 0 29 7 48 16 l34 16 -42 27 c-81 52 -156 140 -186 221
l-10 25 137 0 c129 -1 137 0 159 22 17 17 21 30 17 46 -14 48 -32 53 -189 53
l-146 -1 -1 28 c-1 35 -1 90 0 120 1 24 1 24 144 24 148 0 186 8 188 41 2 31
-2 47 -20 65 -15 16 -36 18 -164 18 l-147 -1 -1 28 c0 15 -1 53 -2 85 l-2 57
146 0 c125 0 150 3 168 18 29 23 34 57 12 83 -16 20 -26 22 -155 22 l-137 0 6
26 c18 70 112 177 200 226 104 58 235 76 345 46 113 -31 225 -119 279 -216 48
-88 56 -81 -100 -82 -89 0 -144 -5 -153 -12 -23 -19 -25 -59 -4 -86 19 -25 22
-25 171 -25 l152 0 0 -79 c0 -44 -3 -82 -7 -86 -3 -3 -69 -6 -147 -6 -131 0
-143 -2 -165 -22 -20 -19 -23 -27 -15 -54 12 -42 29 -46 199 -47 l135 -1 -2
-67 c0 -38 -1 -76 -2 -85 -1 -16 -15 -18 -151 -18 -164 0 -182 -6 -182 -60 0
-53 19 -60 165 -60 l132 1 280 140 c154 78 316 160 360 184 44 23 103 54 130
68 28 14 58 33 68 41 9 8 17 11 17 7 0 -3 19 6 43 21 23 15 43 28 44 28 7 3
-52 149 -91 226 -95 187 -197 312 -386 471 -159 133 -434 249 -675 284 -96 14
-298 10 -401 -7z"/>
<path d="M865 3578 c-10 -24 -20 -44 -21 -46 -1 -2 -14 -5 -30 -8 -83 -13 -81
-11 -39 -54 36 -37 37 -39 27 -84 -11 -54 -3 -58 53 -26 l36 20 51 -26 c41
-21 50 -23 44 -9 -3 9 -9 33 -12 53 -4 32 0 42 31 75 39 40 38 42 -30 52 -37
5 -54 18 -55 40 0 6 -9 20 -18 33 l-18 24 -19 -44z"/>
<path d="M3995 3459 c-47 -8 -88 -19 -92 -22 -3 -4 18 -8 48 -8 57 -2 69 -3
139 -14 129 -20 235 -66 245 -108 19 -74 -125 -231 -375 -412 -30 -22 -59 -43
-65 -48 -22 -18 -194 -135 -268 -182 -43 -28 -89 -57 -102 -65 -80 -51 -402
-243 -460 -275 -38 -20 -74 -41 -80 -45 -10 -8 -79 -46 -210 -117 -138 -74
-681 -344 -815 -405 -518 -236 -815 -330 -1045 -331 -201 0 -231 38 -156 198
37 81 154 254 186 277 5 4 7 9 4 13 -9 9 -136 -92 -213 -170 -101 -102 -140
-170 -144 -256 -4 -59 -1 -74 21 -111 61 -104 180 -147 422 -153 83 -2 175 0
205 5 30 5 71 12 90 14 46 7 175 38 271 65 l77 21 58 -38 c169 -109 353 -178
564 -210 61 -9 322 -9 391 1 126 17 305 74 423 133 64 33 195 111 206 124 3 3
30 25 60 50 67 54 161 149 198 199 15 20 29 38 33 41 16 14 72 106 117 190 94
177 148 375 159 585 l6 112 66 54 c36 30 131 119 211 199 250 249 341 418 300
559 -17 62 -88 118 -170 137 -60 13 -217 10 -305 -7z"/>
<path d="M817 2785 c-14 -29 -22 -35 -47 -35 -35 0 -39 -13 -9 -34 17 -11 20
-22 17 -50 -4 -33 -2 -35 17 -30 11 4 25 10 30 14 6 5 21 2 35 -5 36 -20 39
-19 34 18 -4 25 0 38 21 60 l26 27 -35 0 c-31 0 -38 5 -54 35 l-18 36 -17 -36z"/>
</g>
</svg>
